<mxfile host="Electron" modified="2024-11-12T16:26:22.669Z" agent="Mozilla/5.0 (Windows NT 10.0; Win64; x64) AppleWebKit/537.36 (KHTML, like Gecko) draw.io/21.2.1 Chrome/112.0.5615.87 Electron/24.1.2 Safari/537.36" etag="GuKIZvyXuljq1y-NAKSL" compressed="false" version="21.2.1" type="device">
  <diagram name="PP002A" id="ktzcWRk09WoIoVPCdjO1">
    <mxGraphModel dx="414" dy="242" grid="1" gridSize="2" guides="1" tooltips="1" connect="1" arrows="1" fold="1" page="1" pageScale="1" pageWidth="1169" pageHeight="827" math="0" shadow="0">
      <root>
        <mxCell id="jJQzU4BoMoTkraNRytwX-0" />
        <mxCell id="jJQzU4BoMoTkraNRytwX-135" value="Label" style="locked=1;" parent="jJQzU4BoMoTkraNRytwX-0" />
        <object label="%LabelLines%&amp;nbsp; &amp;nbsp; &amp;nbsp; &amp;nbsp; &amp;nbsp; &amp;nbsp;%LabelIndex%" placeholders="1" LabelLines="1" LabelIndex="A" id="gV43g0uGDdToaKqBmVna-0">
          <mxCell style="rounded=0;whiteSpace=wrap;html=1;fillColor=none;strokeColor=#FF0000;fontColor=#FF0000;fontSize=10;align=left;noLabel=0;" vertex="1" parent="jJQzU4BoMoTkraNRytwX-135">
            <mxGeometry x="330" y="400" width="80" height="16" as="geometry" />
          </mxCell>
        </object>
        <object label="Symbol" Width="16" Height="18" UoM="mm" id="jJQzU4BoMoTkraNRytwX-138">
          <mxCell style="locked=1;" parent="jJQzU4BoMoTkraNRytwX-0" />
        </object>
        <mxCell id="yW8LbLtKJexEcO62kJz7-2" value="" style="ellipse;whiteSpace=wrap;html=1;aspect=fixed;fillColor=none;" parent="jJQzU4BoMoTkraNRytwX-138" vertex="1">
          <mxGeometry x="240" y="96" width="256" height="256" as="geometry" />
        </mxCell>
        <mxCell id="SMwHsykcH-rovEfNC54i-0" value="" style="endArrow=none;html=1;rounded=0;" parent="jJQzU4BoMoTkraNRytwX-138" edge="1">
          <mxGeometry width="50" height="50" relative="1" as="geometry">
            <mxPoint x="240" y="384" as="sourcePoint" />
            <mxPoint x="496" y="384" as="targetPoint" />
          </mxGeometry>
        </mxCell>
        <mxCell id="SMwHsykcH-rovEfNC54i-1" value="" style="endArrow=none;html=1;rounded=0;entryX=0;entryY=1;entryDx=0;entryDy=0;" parent="jJQzU4BoMoTkraNRytwX-138" target="yW8LbLtKJexEcO62kJz7-2" edge="1">
          <mxGeometry width="50" height="50" relative="1" as="geometry">
            <mxPoint x="240" y="384" as="sourcePoint" />
            <mxPoint x="608" y="374" as="targetPoint" />
          </mxGeometry>
        </mxCell>
        <mxCell id="SMwHsykcH-rovEfNC54i-2" value="" style="endArrow=none;html=1;rounded=0;entryX=1;entryY=1;entryDx=0;entryDy=0;" parent="jJQzU4BoMoTkraNRytwX-138" target="yW8LbLtKJexEcO62kJz7-2" edge="1">
          <mxGeometry width="50" height="50" relative="1" as="geometry">
            <mxPoint x="496" y="384" as="sourcePoint" />
            <mxPoint x="608" y="374" as="targetPoint" />
          </mxGeometry>
        </mxCell>
        <mxCell id="U3deYE8QMiJGRX9BA56L-10" value="" style="curved=1;endArrow=none;html=1;rounded=1;endFill=0;entryX=0;entryY=0;entryDx=0;entryDy=0;exitX=0;exitY=1;exitDx=0;exitDy=0;" parent="jJQzU4BoMoTkraNRytwX-138" edge="1">
          <mxGeometry width="50" height="50" relative="1" as="geometry">
            <mxPoint x="277.4903320081221" y="314.5096679918779" as="sourcePoint" />
            <mxPoint x="277.4903320081221" y="133.49033200812215" as="targetPoint" />
            <Array as="points">
              <mxPoint x="344" y="280" />
              <mxPoint x="344" y="168" />
            </Array>
          </mxGeometry>
        </mxCell>
        <mxCell id="jJQzU4BoMoTkraNRytwX-124" value="Connection" style="" parent="jJQzU4BoMoTkraNRytwX-0" />
        <object label="Connection" PipingConnector="Y" LabelConnector="N" SignalConnector="N" Direction="180" id="jJQzU4BoMoTkraNRytwX-125">
          <mxCell style="vsdxID=1407;fillColor=none;gradientColor=none;shape=stencil(rVFbDsIgEDwNnyQU4glqvcfGblsilmZBS28vZGMsxg9j/JvZmX1kR5g2TLCg0CpE8hdcbR8nYY5CaztPSDZmJEwnTDt4wpH8be6ZL1CcBV39vUxI3KdKh1YbswPTEzuBzlmiVGmKau9zUKM+jlJJQrJBko8QrZ+rrQ5oRJnXyMHBWElhRVx25ebnw/5zVvPFWRm83jxY5zilvf4eSy5xpKZ7AA==);strokeColor=#00FF00;strokeWidth=1;points=[[0.5,0.5,0,0,0]];labelBackgroundColor=none;rounded=0;html=1;whiteSpace=wrap;aspect=fixed;noLabel=1;snapToPoint=1;container=0;fontSize=16;" parent="jJQzU4BoMoTkraNRytwX-124" vertex="1">
            <mxGeometry x="234" y="218" width="12" height="12" as="geometry" />
          </mxCell>
        </object>
        <object label="Connection" PipingConnector="Y" LabelConnector="N" SignalConnector="N" Direction="0" id="WmMu_xjI6wHRPddwixqc-0">
          <mxCell style="vsdxID=1407;fillColor=none;gradientColor=none;shape=stencil(rVFbDsIgEDwNnyQU4glqvcfGblsilmZBS28vZGMsxg9j/JvZmX1kR5g2TLCg0CpE8hdcbR8nYY5CaztPSDZmJEwnTDt4wpH8be6ZL1CcBV39vUxI3KdKh1YbswPTEzuBzlmiVGmKau9zUKM+jlJJQrJBko8QrZ+rrQ5oRJnXyMHBWElhRVx25ebnw/5zVvPFWRm83jxY5zilvf4eSy5xpKZ7AA==);strokeColor=#00FF00;strokeWidth=1;points=[[0.5,0.5,0,0,0]];labelBackgroundColor=none;rounded=0;html=1;whiteSpace=wrap;aspect=fixed;noLabel=1;snapToPoint=1;container=0;fontSize=16;" parent="jJQzU4BoMoTkraNRytwX-124" vertex="1">
            <mxGeometry x="362" y="90" width="12" height="12" as="geometry" />
          </mxCell>
        </object>
        <mxCell id="jJQzU4BoMoTkraNRytwX-136" value="Origo" style="locked=1;" parent="jJQzU4BoMoTkraNRytwX-0" />
        <object label="origo" id="jJQzU4BoMoTkraNRytwX-137">
          <mxCell style="vsdxID=1407;fillColor=none;gradientColor=none;shape=stencil(rVFbDsIgEDwNnyQU4glqvcfGblsilmZBS28vZGMsxg9j/JvZmX1kR5g2TLCg0CpE8hdcbR8nYY5CaztPSDZmJEwnTDt4wpH8be6ZL1CcBV39vUxI3KdKh1YbswPTEzuBzlmiVGmKau9zUKM+jlJJQrJBko8QrZ+rrQ5oRJnXyMHBWElhRVx25ebnw/5zVvPFWRm83jxY5zilvf4eSy5xpKZ7AA==);strokeColor=#ff0000;strokeWidth=1;points=[[0.5,0.5,0,0,0]];labelBackgroundColor=none;rounded=0;html=1;whiteSpace=wrap;aspect=fixed;noLabel=1;snapToPoint=1;" parent="jJQzU4BoMoTkraNRytwX-136" vertex="1">
            <mxGeometry x="364" y="220" width="8" height="8" as="geometry" />
          </mxCell>
        </object>
      </root>
    </mxGraphModel>
  </diagram>
</mxfile>
